<svg id="svg" version="1.1" xmlns="http://www.w3.org/2000/svg" xmlns:xlink="http://www.w3.org/1999/xlink" width="400" height="400" viewBox="0, 0, 400,400"><g id="svgg"><path id="path0" d="M193.176 53.352 C 193.052 53.478,190.532 53.768,187.576 53.996 C 179.841 54.591,175.926 55.185,166.700 57.165 C 155.201 59.632,138.841 65.943,129.852 71.380 C 128.560 72.161,127.430 72.800,127.341 72.800 C 127.114 72.800,116.907 79.769,115.180 81.103 C 105.924 88.253,96.304 98.784,90.977 107.600 C 88.175 112.237,87.453 113.615,84.585 119.800 C 83.299 122.572,81.160 129.190,79.995 134.000 C 79.138 137.537,78.000 147.183,78.000 150.904 C 78.000 153.785,78.178 155.571,79.244 163.400 C 80.142 170.002,82.470 177.620,85.643 184.348 C 86.720 186.630,87.600 188.551,87.600 188.617 C 87.600 188.684,88.790 190.687,90.244 193.069 C 100.899 210.523,117.128 224.709,137.569 234.438 C 140.336 235.755,142.913 237.005,143.295 237.216 C 143.677 237.427,144.174 237.600,144.399 237.600 C 144.624 237.600,145.572 237.952,146.504 238.382 C 152.874 241.319,166.904 245.058,178.200 246.829 C 190.759 248.798,211.246 248.892,221.800 247.028 C 222.460 246.912,224.800 246.528,227.000 246.176 C 239.295 244.208,253.579 239.618,264.969 233.975 C 280.647 226.206,281.245 224.790,272.188 216.859 C 271.095 215.902,269.297 214.282,268.194 213.259 C 267.091 212.237,264.482 209.870,262.395 208.000 C 259.104 205.050,256.656 202.852,255.044 201.400 C 254.800 201.179,252.893 199.469,250.806 197.600 C 248.719 195.730,246.109 193.372,245.006 192.359 C 243.903 191.347,242.190 189.817,241.200 188.960 C 240.210 188.103,238.410 186.482,237.200 185.360 C 235.990 184.237,234.190 182.617,233.200 181.759 C 232.210 180.902,230.500 179.359,229.400 178.331 C 228.300 177.303,226.950 176.074,226.400 175.600 C 225.850 175.126,224.770 174.167,223.999 173.469 C 223.228 172.771,220.891 170.670,218.805 168.800 C 216.718 166.930,214.109 164.573,213.006 163.563 C 210.327 161.109,202.535 154.122,200.682 152.512 C 199.086 151.126,198.889 150.621,199.748 150.120 C 200.050 149.944,201.805 148.433,203.648 146.762 C 205.492 145.091,209.070 141.868,211.600 139.599 C 214.130 137.330,217.820 134.003,219.800 132.205 C 221.780 130.407,225.470 127.079,228.000 124.810 C 230.530 122.540,234.040 119.387,235.800 117.802 C 237.560 116.217,241.070 113.061,243.600 110.788 C 246.130 108.516,249.730 105.272,251.600 103.580 C 253.470 101.888,257.070 98.647,259.600 96.377 C 277.685 80.154,278.000 79.830,278.000 77.479 C 278.000 76.188,276.476 74.031,275.000 73.232 C 274.340 72.875,272.720 71.947,271.400 71.171 C 263.165 66.330,250.553 61.236,239.600 58.326 C 236.758 57.572,235.829 57.356,231.300 56.398 C 226.753 55.437,220.470 54.509,215.000 53.991 C 209.796 53.497,193.498 53.020,193.176 53.352 M204.566 91.405 C 218.298 95.571,214.703 110.987,200.000 110.987 C 187.569 110.987,182.096 99.299,191.654 93.165 C 195.188 90.898,200.505 90.173,204.566 91.405 M26.199 141.100 C 25.320 142.805,24.483 144.290,24.340 144.400 C 24.197 144.510,24.017 144.960,23.940 145.400 C 23.863 145.840,23.485 146.491,23.100 146.847 C 22.715 147.203,22.400 147.788,22.400 148.147 C 22.400 148.506,22.209 148.800,21.976 148.800 C 21.743 148.800,21.655 148.965,21.780 149.168 C 21.905 149.370,21.691 149.852,21.304 150.239 C 20.917 150.626,20.645 151.001,20.700 151.071 C 20.952 151.396,20.765 152.425,20.485 152.252 C 20.312 152.145,20.130 152.540,20.081 153.129 C 20.033 153.718,19.815 154.260,19.597 154.333 C 19.378 154.407,19.200 154.724,19.200 155.039 C 19.200 155.708,18.376 157.271,17.800 157.694 C 17.565 157.867,17.647 157.993,18.000 158.000 C 18.353 158.007,18.435 158.133,18.200 158.306 C 17.572 158.767,16.800 160.317,16.800 161.115 C 16.800 161.514,16.646 162.011,16.458 162.220 C 16.105 162.613,14.820 166.442,13.982 169.600 C 13.719 170.590,13.265 172.055,12.973 172.855 C 12.682 173.655,12.553 174.420,12.688 174.555 C 12.823 174.690,12.768 174.800,12.567 174.800 C 12.365 174.800,12.205 175.385,12.210 176.100 C 12.216 176.815,11.980 177.585,11.687 177.812 C 11.280 178.126,11.252 178.485,11.572 179.326 C 11.894 180.173,11.869 180.476,11.462 180.631 C 11.171 180.743,10.909 181.052,10.880 181.317 C 10.851 181.583,10.752 182.388,10.662 183.106 C 10.488 184.479,10.953 185.220,11.346 184.198 C 11.472 183.869,11.388 183.600,11.159 183.600 C 10.930 183.600,11.013 183.330,11.343 183.000 C 11.839 182.504,13.440 182.400,20.618 182.400 L 29.292 182.400 29.019 174.700 C 28.869 170.465,28.553 166.383,28.319 165.630 C 27.895 164.269,28.102 149.257,28.652 141.500 C 28.973 136.973,28.379 136.876,26.199 141.100 M372.932 138.634 C 372.798 138.983,372.894 140.738,373.145 142.534 C 373.687 146.414,373.758 164.333,373.236 165.705 C 373.036 166.231,372.741 170.742,372.580 175.731 L 372.288 184.800 378.944 184.800 C 383.491 184.800,385.600 184.939,385.600 185.237 C 385.600 185.516,386.382 185.625,387.763 185.537 C 388.952 185.462,389.842 185.535,389.739 185.700 C 389.637 185.865,389.823 186.000,390.153 186.000 C 390.483 186.000,390.881 185.792,391.038 185.538 C 391.232 185.225,391.143 185.185,390.762 185.415 C 390.329 185.676,390.293 185.621,390.606 185.177 C 390.963 184.671,391.053 183.818,390.816 183.200 C 390.506 182.392,390.339 181.149,390.344 179.678 C 390.347 178.629,390.146 177.878,389.829 177.756 C 389.543 177.646,389.304 177.071,389.298 176.478 C 389.292 175.885,389.253 175.310,389.213 175.200 C 389.070 174.812,388.807 173.390,388.719 172.529 C 388.670 172.050,388.488 171.745,388.315 171.852 C 388.142 171.960,388.000 171.507,388.000 170.847 C 388.000 170.187,387.820 169.536,387.600 169.400 C 387.380 169.264,387.200 168.623,387.200 167.976 C 387.200 167.329,387.057 166.800,386.883 166.800 C 386.708 166.800,386.326 165.723,386.034 164.406 C 385.742 163.090,385.345 162.111,385.151 162.230 C 384.958 162.349,384.800 161.907,384.800 161.247 C 384.800 160.587,384.620 159.936,384.400 159.800 C 384.180 159.664,384.000 159.113,384.000 158.576 C 384.000 158.039,383.820 157.600,383.600 157.600 C 383.380 157.600,383.200 157.240,383.200 156.800 C 383.200 156.360,383.020 156.000,382.800 156.000 C 382.580 156.000,382.400 155.640,382.400 155.200 C 382.400 154.760,382.220 154.400,382.000 154.400 C 381.780 154.400,381.600 153.961,381.600 153.424 C 381.600 152.887,381.420 152.336,381.200 152.200 C 380.980 152.064,380.800 151.603,380.800 151.176 C 380.800 150.749,380.620 150.400,380.400 150.400 C 380.180 150.400,380.000 150.040,380.000 149.600 C 380.000 149.160,379.820 148.800,379.600 148.800 C 379.380 148.800,379.200 148.440,379.200 148.000 C 379.200 147.560,379.064 147.200,378.898 147.200 C 378.731 147.200,378.340 146.615,378.028 145.900 C 377.716 145.185,377.132 144.309,376.730 143.953 C 376.329 143.597,376.000 143.012,376.000 142.653 C 376.000 142.294,375.843 142.000,375.650 142.000 C 375.457 142.000,375.196 141.482,375.070 140.848 C 374.943 140.215,374.569 139.426,374.239 139.096 C 373.908 138.766,373.750 138.384,373.886 138.248 C 374.022 138.111,373.918 138.000,373.654 138.000 C 373.391 138.000,373.065 138.285,372.932 138.634 M259.812 141.664 C 253.593 143.765,250.215 149.110,252.161 153.769 C 256.646 164.503,278.000 162.224,278.000 151.012 C 278.000 143.781,268.300 138.796,259.812 141.664 M306.600 141.664 C 300.135 143.836,296.934 149.289,299.242 154.200 C 303.069 162.341,318.343 163.159,323.424 155.496 C 328.897 147.240,317.614 137.963,306.600 141.664 M387.012 241.317 C 386.841 241.712,386.813 242.147,386.951 242.284 C 387.357 242.690,387.684 242.120,387.497 241.331 C 387.332 240.633,387.310 240.632,387.012 241.317 M386.150 243.900 C 385.568 245.712,385.084 247.085,384.706 248.000 C 384.479 248.550,384.137 249.405,383.946 249.900 C 383.756 250.395,383.444 251.205,383.254 251.700 C 381.783 255.520,377.277 264.748,374.929 268.749 C 369.725 277.615,362.971 287.022,356.800 294.000 C 349.350 302.423,353.041 299.323,361.919 289.700 C 365.627 285.681,366.248 285.299,365.825 287.300 C 364.861 291.853,363.999 303.600,364.629 303.600 C 366.257 303.600,375.945 286.617,379.004 278.400 C 379.373 277.410,379.862 276.150,380.091 275.600 C 380.320 275.050,380.650 274.240,380.824 273.800 C 381.499 272.097,382.771 267.612,383.775 263.400 C 384.351 260.980,384.998 258.349,385.212 257.554 C 385.425 256.758,385.600 255.399,385.600 254.534 C 385.600 253.668,385.757 252.789,385.950 252.580 C 386.309 252.190,386.893 243.200,386.560 243.200 C 386.458 243.200,386.274 243.515,386.150 243.900 M24.407 265.609 C 24.385 267.536,37.655 288.489,41.074 291.929 C 41.364 292.219,41.600 292.581,41.600 292.733 C 41.600 292.884,42.019 293.460,42.530 294.012 C 43.464 295.019,43.633 298.000,42.756 298.000 C 42.560 298.000,42.400 298.720,42.400 299.600 C 42.400 300.480,42.239 301.200,42.042 301.200 C 41.846 301.200,41.557 302.821,41.400 304.803 C 41.243 306.784,40.953 308.505,40.756 308.627 C 40.558 308.749,40.848 309.440,41.398 310.162 C 41.949 310.885,42.400 311.602,42.400 311.756 C 42.400 311.910,42.805 312.456,43.300 312.968 C 43.795 313.480,44.470 314.240,44.800 314.656 C 52.572 324.455,65.277 336.535,74.400 342.800 C 75.170 343.329,75.890 343.876,76.000 344.016 C 76.382 344.501,84.624 349.870,88.607 352.228 C 90.811 353.532,93.151 354.924,93.807 355.319 C 97.497 357.543,110.811 363.791,117.000 366.202 C 119.640 367.231,122.160 368.230,122.600 368.423 C 125.345 369.626,140.941 374.171,145.800 375.185 C 147.120 375.460,148.650 375.831,149.200 376.010 C 149.750 376.188,150.920 376.456,151.800 376.605 C 152.680 376.754,154.300 377.051,155.400 377.264 C 156.500 377.478,158.300 377.739,159.400 377.846 C 160.500 377.952,161.760 378.197,162.200 378.390 C 162.640 378.584,164.215 378.824,165.700 378.925 L 168.400 379.108 168.400 377.978 C 168.400 377.356,168.580 376.736,168.800 376.600 C 169.020 376.464,169.200 375.384,169.200 374.200 C 169.200 373.016,169.380 371.936,169.600 371.800 C 169.820 371.664,170.000 370.494,170.000 369.200 C 170.000 367.906,170.180 366.736,170.400 366.600 C 170.622 366.463,170.800 364.643,170.800 362.517 L 170.800 358.681 176.500 359.039 C 184.628 359.549,210.453 359.425,216.400 358.847 C 230.764 357.451,248.902 354.495,249.926 353.384 C 250.077 353.220,249.480 353.222,248.600 353.387 C 247.720 353.552,246.010 353.841,244.800 354.030 C 243.590 354.218,241.520 354.558,240.200 354.784 C 224.089 357.544,204.311 358.542,187.800 357.427 C 174.086 356.501,171.431 356.192,158.400 354.002 C 154.303 353.314,142.515 350.624,139.000 349.575 C 138.340 349.378,136.450 348.830,134.800 348.356 C 131.187 347.320,124.909 345.293,123.800 344.805 C 123.360 344.611,121.830 344.055,120.400 343.570 C 115.271 341.830,106.279 337.777,104.959 336.611 C 104.709 336.389,104.599 335.509,104.704 334.571 C 105.409 328.324,97.707 324.318,92.527 328.237 C 90.895 329.471,90.706 329.457,87.600 327.866 C 66.763 317.195,41.630 293.288,28.445 271.595 C 27.042 269.288,25.561 266.860,25.154 266.200 C 24.742 265.532,24.410 265.270,24.407 265.609 " stroke="none" fill="#ebedee" fill-rule="evenodd"></path><path id="path1" d="M182.400 14.800 C 182.400 15.037,180.941 15.200,178.824 15.200 C 176.857 15.200,175.136 15.380,175.000 15.600 C 174.864 15.820,173.503 16.000,171.976 16.000 C 170.392 16.000,169.200 16.172,169.200 16.400 C 169.200 16.629,168.000 16.800,166.400 16.800 C 164.800 16.800,163.600 16.971,163.600 17.200 C 163.600 17.420,162.801 17.600,161.824 17.600 C 160.847 17.600,159.936 17.780,159.800 18.000 C 159.664 18.220,158.753 18.400,157.776 18.400 C 156.799 18.400,156.000 18.580,156.000 18.800 C 156.000 19.020,155.100 19.200,154.000 19.200 C 152.900 19.200,152.000 19.380,152.000 19.600 C 152.000 19.820,151.280 20.000,150.400 20.000 C 149.520 20.000,148.800 20.180,148.800 20.400 C 148.800 20.620,148.080 20.800,147.200 20.800 C 146.320 20.800,145.600 20.980,145.600 21.200 C 145.600 21.420,145.060 21.600,144.400 21.600 C 143.740 21.600,143.200 21.780,143.200 22.000 C 143.200 22.220,142.570 22.400,141.800 22.400 C 141.030 22.400,140.400 22.580,140.400 22.800 C 140.400 23.020,139.860 23.200,139.200 23.200 C 138.540 23.200,138.000 23.380,138.000 23.600 C 138.000 23.820,137.460 24.000,136.800 24.000 C 136.140 24.000,135.600 24.180,135.600 24.400 C 135.600 24.620,134.925 24.801,134.100 24.802 C 133.275 24.804,132.084 25.074,131.454 25.402 C 130.824 25.731,129.980 26.000,129.578 26.000 C 129.176 26.000,128.736 26.180,128.600 26.400 C 128.464 26.620,127.913 26.800,127.376 26.800 C 126.839 26.800,126.400 26.947,126.400 27.128 C 126.400 27.308,125.500 27.700,124.400 28.000 C 123.300 28.300,122.400 28.692,122.400 28.872 C 122.400 29.053,122.040 29.200,121.600 29.200 C 121.160 29.200,120.800 29.380,120.800 29.600 C 120.800 29.820,120.260 30.000,119.600 30.000 C 118.940 30.000,118.400 30.180,118.400 30.400 C 118.400 30.620,118.040 30.800,117.600 30.800 C 117.160 30.800,116.800 30.980,116.800 31.200 C 116.800 31.420,116.440 31.600,116.000 31.600 C 115.560 31.600,115.200 31.780,115.200 32.000 C 115.200 32.220,114.928 32.400,114.595 32.400 C 114.262 32.400,113.677 32.560,113.295 32.756 C 112.913 32.952,111.700 33.537,110.600 34.056 C 109.500 34.575,108.540 35.135,108.467 35.300 C 108.393 35.465,107.988 35.600,107.567 35.600 C 107.145 35.600,106.800 35.780,106.800 36.000 C 106.800 36.220,106.440 36.400,106.000 36.400 C 105.560 36.400,105.200 36.580,105.200 36.800 C 105.200 37.020,104.880 37.200,104.488 37.200 C 104.097 37.200,103.517 37.560,103.200 38.000 C 102.883 38.440,102.303 38.800,101.912 38.800 C 101.520 38.800,101.200 38.980,101.200 39.200 C 101.200 39.420,100.840 39.600,100.400 39.600 C 99.960 39.600,99.600 39.780,99.600 40.000 C 99.600 40.220,99.240 40.400,98.800 40.400 C 98.360 40.400,97.998 40.535,97.995 40.700 C 97.993 40.865,97.276 41.342,96.402 41.761 C 95.528 42.180,94.513 42.855,94.145 43.261 C 93.777 43.667,93.144 44.000,92.738 44.000 C 92.332 44.000,92.000 44.168,92.000 44.373 C 92.000 44.578,91.634 44.862,91.187 45.004 C 90.740 45.146,89.938 45.698,89.405 46.231 C 88.872 46.764,88.198 47.200,87.906 47.200 C 87.615 47.200,87.117 47.560,86.800 48.000 C 86.483 48.440,85.943 48.800,85.600 48.800 C 85.257 48.800,84.717 49.160,84.400 49.600 C 84.083 50.040,83.620 50.400,83.371 50.400 C 83.122 50.400,82.354 50.940,81.663 51.600 C 80.972 52.260,80.226 52.800,80.004 52.800 C 79.782 52.800,79.600 52.980,79.600 53.200 C 79.600 53.420,79.375 53.602,79.100 53.604 C 78.825 53.606,78.175 54.146,77.655 54.804 C 77.135 55.462,76.544 56.000,76.342 56.000 C 76.139 56.000,75.357 56.585,74.603 57.300 C 73.180 58.651,71.330 60.251,68.606 62.490 C 65.980 64.648,61.627 69.174,60.575 70.840 C 60.033 71.698,59.382 72.400,59.128 72.400 C 58.874 72.400,58.777 72.511,58.913 72.646 C 59.048 72.781,58.268 73.760,57.179 74.820 C 56.091 75.880,55.200 76.864,55.200 77.005 C 55.200 77.147,54.480 77.997,53.600 78.895 C 52.720 79.793,52.000 80.729,52.000 80.975 C 52.000 81.222,51.640 81.683,51.200 82.000 C 50.760 82.317,50.400 82.809,50.400 83.092 C 50.400 83.375,49.860 84.172,49.200 84.863 C 48.540 85.554,48.000 86.362,48.000 86.659 C 48.000 86.957,47.848 87.200,47.663 87.200 C 47.477 87.200,46.896 88.055,46.370 89.100 C 45.844 90.145,45.096 91.291,44.707 91.647 C 44.318 92.003,44.000 92.411,44.000 92.555 C 44.000 92.698,43.550 93.529,43.000 94.400 C 42.450 95.271,42.000 96.258,42.000 96.592 C 42.000 96.926,41.820 97.200,41.600 97.200 C 41.380 97.200,41.200 97.560,41.200 98.000 C 41.200 98.440,41.020 98.800,40.800 98.800 C 40.580 98.800,40.400 99.160,40.400 99.600 C 40.400 100.040,40.220 100.400,40.000 100.400 C 39.780 100.400,39.600 100.760,39.600 101.200 C 39.600 101.640,39.420 102.000,39.200 102.000 C 38.980 102.000,38.800 102.360,38.800 102.800 C 38.800 103.240,38.620 103.600,38.400 103.600 C 38.180 103.600,38.000 103.960,38.000 104.400 C 38.000 104.840,37.820 105.200,37.600 105.200 C 37.380 105.200,37.200 105.472,37.200 105.805 C 37.200 106.393,37.033 106.818,36.062 108.695 C 35.808 109.187,35.600 109.862,35.600 110.195 C 35.600 110.528,35.420 110.800,35.200 110.800 C 34.980 110.800,34.800 111.250,34.800 111.800 C 34.800 112.350,34.620 112.800,34.400 112.800 C 34.180 112.800,34.000 113.340,34.000 114.000 C 34.000 114.660,33.820 115.200,33.600 115.200 C 33.380 115.200,33.200 115.740,33.200 116.400 C 33.200 117.060,33.020 117.600,32.800 117.600 C 32.580 117.600,32.400 118.140,32.400 118.800 C 32.400 119.460,32.220 120.000,32.000 120.000 C 31.780 120.000,31.600 120.529,31.600 121.176 C 31.600 121.823,31.420 122.464,31.200 122.600 C 30.980 122.736,30.800 123.456,30.800 124.200 C 30.800 124.944,30.620 125.664,30.400 125.800 C 30.180 125.936,30.000 126.746,30.000 127.600 C 30.000 128.454,29.820 129.264,29.600 129.400 C 29.380 129.536,29.200 130.436,29.200 131.400 C 29.200 132.364,29.054 133.243,28.875 133.353 C 28.240 133.746,28.584 164.502,29.308 172.000 C 29.680 175.850,30.167 180.890,30.392 183.200 C 30.616 185.510,30.896 188.570,31.013 190.000 C 31.131 191.430,31.394 194.220,31.598 196.200 C 31.801 198.180,32.159 201.780,32.393 204.200 C 33.743 218.158,33.906 219.285,35.646 226.700 C 36.474 230.228,39.592 239.840,40.869 242.800 C 59.458 285.893,101.307 317.867,155.000 329.999 C 162.745 331.749,169.238 332.767,180.400 333.979 C 187.491 334.749,201.101 334.958,207.157 334.390 L 212.800 333.861 212.800 331.930 C 212.800 330.869,212.620 330.000,212.400 330.000 C 212.180 330.000,212.000 329.280,212.000 328.400 C 212.000 327.520,211.820 326.800,211.600 326.800 C 211.380 326.800,211.200 325.990,211.200 325.000 C 211.200 324.010,211.036 323.200,210.836 323.200 C 210.636 323.200,210.343 320.860,210.185 318.000 C 210.027 315.140,209.740 312.800,209.549 312.800 C 209.357 312.800,209.200 311.450,209.200 309.800 C 209.200 308.067,209.031 306.800,208.800 306.800 C 208.552 306.800,208.400 304.667,208.400 301.200 C 208.400 297.733,208.248 295.600,208.000 295.600 C 207.041 295.600,207.539 290.401,208.500 290.380 C 214.262 290.249,234.226 287.780,240.600 286.409 C 241.480 286.220,243.280 285.843,244.600 285.572 C 246.897 285.100,253.335 283.512,258.000 282.266 C 271.585 278.638,289.654 271.059,302.000 263.810 C 304.530 262.324,307.199 260.764,307.931 260.344 C 309.558 259.409,316.522 254.761,316.800 254.425 C 316.910 254.292,318.708 252.927,320.796 251.392 C 324.718 248.507,331.501 242.852,335.000 239.549 C 338.300 236.435,338.925 235.965,339.287 236.327 C 339.813 236.853,339.744 257.486,339.183 267.310 C 338.596 277.597,338.630 277.710,341.194 274.000 C 341.727 273.230,342.448 272.330,342.798 272.000 C 345.134 269.794,353.616 257.091,356.018 252.200 C 356.558 251.100,357.135 250.140,357.300 250.067 C 357.465 249.993,357.600 249.765,357.600 249.559 C 357.600 249.352,358.290 247.702,359.134 245.892 C 359.978 244.081,361.076 241.520,361.573 240.200 C 362.071 238.880,362.622 237.440,362.799 237.000 C 364.201 233.500,366.176 226.195,367.123 221.000 C 367.907 216.700,368.352 213.110,369.202 204.200 C 369.433 201.780,369.804 198.000,370.026 195.800 C 370.248 193.600,370.874 186.940,371.417 181.000 C 371.960 175.060,372.573 168.580,372.777 166.600 C 373.726 157.422,373.138 130.658,371.961 129.420 C 371.763 129.211,371.600 128.367,371.600 127.544 C 371.600 126.721,371.440 125.948,371.244 125.827 C 371.049 125.706,370.773 124.931,370.633 124.104 C 370.011 120.451,369.893 120.000,369.556 120.000 C 369.360 120.000,369.200 119.460,369.200 118.800 C 369.200 118.140,369.020 117.600,368.800 117.600 C 368.580 117.600,368.400 117.161,368.400 116.624 C 368.400 116.087,368.220 115.536,368.000 115.400 C 367.780 115.264,367.600 114.623,367.600 113.976 C 367.600 113.329,367.420 112.800,367.200 112.800 C 366.980 112.800,366.800 112.350,366.800 111.800 C 366.800 111.250,366.620 110.800,366.400 110.800 C 366.180 110.800,366.000 110.528,366.000 110.195 C 366.000 109.862,365.843 109.277,365.650 108.895 C 364.152 105.920,363.600 104.647,363.600 104.162 C 363.600 103.853,363.420 103.600,363.200 103.600 C 362.980 103.600,362.800 103.240,362.800 102.800 C 362.800 102.360,362.620 102.000,362.400 102.000 C 362.180 102.000,362.000 101.640,362.000 101.200 C 362.000 100.760,361.820 100.400,361.600 100.400 C 361.380 100.400,361.200 100.040,361.200 99.600 C 361.200 99.160,361.020 98.800,360.800 98.800 C 360.580 98.800,360.400 98.455,360.400 98.033 C 360.400 97.612,360.259 97.207,360.087 97.133 C 359.915 97.060,359.259 95.970,358.628 94.711 C 357.997 93.453,357.148 92.065,356.740 91.628 C 356.333 91.191,356.000 90.556,356.000 90.217 C 356.000 89.878,355.820 89.600,355.600 89.600 C 355.380 89.600,355.200 89.364,355.200 89.075 C 355.200 88.787,354.840 88.164,354.400 87.692 C 353.960 87.220,353.600 86.673,353.600 86.476 C 353.600 86.279,353.060 85.554,352.400 84.863 C 351.740 84.172,351.200 83.375,351.200 83.092 C 351.200 82.809,350.840 82.317,350.400 82.000 C 349.960 81.683,349.600 81.193,349.600 80.912 C 349.600 80.630,349.420 80.400,349.200 80.400 C 348.980 80.400,348.800 80.202,348.800 79.960 C 348.800 79.719,348.260 79.017,347.600 78.400 C 346.940 77.783,346.400 77.161,346.400 77.017 C 346.400 76.873,345.340 75.715,344.044 74.443 C 342.748 73.171,341.408 71.606,341.066 70.965 C 340.370 69.662,335.459 64.501,333.000 62.489 C 330.354 60.324,328.443 58.672,326.997 57.300 C 326.243 56.585,325.522 56.000,325.395 56.000 C 325.268 56.000,324.744 55.595,324.232 55.100 C 322.974 53.885,321.635 52.800,321.392 52.800 C 321.282 52.800,320.628 52.260,319.937 51.600 C 319.246 50.940,318.478 50.400,318.229 50.400 C 317.980 50.400,317.517 50.040,317.200 49.600 C 316.883 49.160,316.343 48.800,316.000 48.800 C 315.657 48.800,315.117 48.440,314.800 48.000 C 314.483 47.560,313.985 47.200,313.694 47.200 C 313.402 47.200,312.728 46.764,312.195 46.231 C 311.662 45.698,310.860 45.146,310.413 45.004 C 309.966 44.862,309.600 44.578,309.600 44.373 C 309.600 44.168,309.411 44.000,309.181 44.000 C 308.950 44.000,307.777 43.370,306.573 42.600 C 305.369 41.830,304.208 41.200,303.992 41.200 C 303.777 41.200,303.600 41.020,303.600 40.800 C 303.600 40.580,303.240 40.400,302.800 40.400 C 302.360 40.400,302.000 40.220,302.000 40.000 C 302.000 39.780,301.640 39.600,301.200 39.600 C 300.760 39.600,300.400 39.420,300.400 39.200 C 300.400 38.980,300.040 38.800,299.600 38.800 C 299.160 38.800,298.800 38.648,298.800 38.463 C 298.800 38.277,297.945 37.692,296.900 37.163 C 295.855 36.633,294.940 36.065,294.867 35.900 C 294.793 35.735,294.388 35.600,293.967 35.600 C 293.545 35.600,293.200 35.420,293.200 35.200 C 293.200 34.980,292.840 34.800,292.400 34.800 C 291.960 34.800,291.600 34.620,291.600 34.400 C 291.600 34.180,291.240 34.000,290.800 34.000 C 290.360 34.000,290.000 33.820,290.000 33.600 C 290.000 33.380,289.651 33.200,289.224 33.200 C 288.797 33.200,288.336 33.020,288.200 32.800 C 288.064 32.580,287.603 32.400,287.176 32.400 C 286.749 32.400,286.400 32.220,286.400 32.000 C 286.400 31.780,286.040 31.600,285.600 31.600 C 285.160 31.600,284.800 31.420,284.800 31.200 C 284.800 30.980,284.440 30.800,284.000 30.800 C 283.560 30.800,283.200 30.620,283.200 30.400 C 283.200 30.180,282.660 30.000,282.000 30.000 C 281.340 30.000,280.800 29.820,280.800 29.600 C 280.800 29.380,280.440 29.200,280.000 29.200 C 279.560 29.200,279.200 29.053,279.200 28.872 C 279.200 28.692,278.300 28.300,277.200 28.000 C 276.100 27.700,275.200 27.308,275.200 27.128 C 275.200 26.947,274.838 26.800,274.395 26.800 C 273.952 26.800,273.277 26.631,272.895 26.424 C 272.110 26.000,269.955 25.435,269.500 25.534 C 269.335 25.570,269.200 25.420,269.200 25.200 C 269.200 24.980,268.480 24.800,267.600 24.800 C 266.720 24.800,266.000 24.620,266.000 24.400 C 266.000 24.180,265.460 24.000,264.800 24.000 C 264.140 24.000,263.600 23.820,263.600 23.600 C 263.600 23.380,263.060 23.200,262.400 23.200 C 261.740 23.200,261.200 23.020,261.200 22.800 C 261.200 22.580,260.570 22.400,259.800 22.400 C 259.030 22.400,258.400 22.220,258.400 22.000 C 258.400 21.780,257.871 21.600,257.224 21.600 C 256.577 21.600,255.936 21.420,255.800 21.200 C 255.664 20.980,254.933 20.800,254.176 20.800 C 253.419 20.800,252.800 20.620,252.800 20.400 C 252.800 20.180,252.080 20.000,251.200 20.000 C 250.320 20.000,249.600 19.820,249.600 19.600 C 249.600 19.380,248.700 19.200,247.600 19.200 C 246.500 19.200,245.600 19.020,245.600 18.800 C 245.600 18.580,244.700 18.400,243.600 18.400 C 242.500 18.400,241.600 18.220,241.600 18.000 C 241.600 17.780,240.801 17.600,239.824 17.600 C 238.847 17.600,237.936 17.420,237.800 17.200 C 237.664 16.980,236.393 16.800,234.976 16.800 C 233.525 16.800,232.400 16.625,232.400 16.400 C 232.400 16.171,231.200 16.000,229.600 16.000 C 228.000 16.000,226.800 15.829,226.800 15.600 C 226.800 15.361,225.267 15.200,223.000 15.200 C 220.733 15.200,219.200 15.039,219.200 14.800 C 219.200 14.539,212.800 14.400,200.800 14.400 C 188.800 14.400,182.400 14.539,182.400 14.800 M211.977 52.810 C 219.320 53.462,226.549 54.487,231.400 55.564 C 232.280 55.759,233.900 56.109,235.000 56.342 C 249.883 59.484,274.362 70.019,277.339 74.563 C 279.737 78.223,279.465 78.557,259.600 96.377 C 257.070 98.647,253.470 101.888,251.600 103.580 C 249.730 105.272,246.130 108.516,243.600 110.788 C 241.070 113.061,237.560 116.217,235.800 117.802 C 234.040 119.387,230.530 122.540,228.000 124.810 C 225.470 127.079,221.780 130.407,219.800 132.205 C 217.820 134.003,214.130 137.328,211.600 139.593 C 209.070 141.859,205.313 145.253,203.252 147.136 L 199.504 150.559 200.852 151.736 C 201.593 152.384,203.010 153.656,204.000 154.563 C 204.990 155.471,210.210 160.166,215.600 164.998 C 220.990 169.830,225.490 173.881,225.600 174.000 C 225.710 174.120,227.690 175.911,230.000 177.980 C 232.310 180.050,235.800 183.196,237.756 184.971 C 239.712 186.747,241.622 188.470,242.000 188.800 C 243.299 189.934,249.392 195.402,251.583 197.400 C 254.069 199.668,253.751 199.381,257.434 202.666 C 258.955 204.023,264.160 208.709,269.000 213.080 L 277.800 221.026 277.922 222.919 C 278.174 226.827,276.486 228.268,264.969 233.975 C 253.579 239.618,239.295 244.208,227.000 246.176 C 224.800 246.528,222.460 246.912,221.800 247.028 C 211.246 248.892,190.759 248.798,178.200 246.829 C 166.904 245.058,152.874 241.319,146.504 238.382 C 145.572 237.952,144.624 237.600,144.399 237.600 C 144.174 237.600,143.677 237.427,143.295 237.216 C 142.913 237.005,140.336 235.755,137.569 234.438 C 117.128 224.709,100.899 210.523,90.244 193.069 C 88.790 190.687,87.600 188.684,87.600 188.617 C 87.600 188.551,86.720 186.630,85.643 184.348 C 83.841 180.527,81.934 175.333,80.888 171.400 C 79.820 167.381,79.599 166.319,78.930 162.000 C 76.894 148.854,78.851 132.745,84.007 120.200 C 96.552 89.677,130.422 63.407,166.400 56.297 C 166.950 56.188,168.840 55.806,170.600 55.448 C 183.785 52.765,199.893 51.738,211.977 52.810 M195.499 91.394 C 189.109 93.153,185.509 98.526,187.544 103.267 C 191.452 112.369,208.314 112.459,212.452 103.400 C 215.864 95.929,205.555 88.628,195.499 91.394 M268.840 140.439 C 283.403 145.139,280.304 160.600,264.800 160.600 C 249.504 160.600,246.309 145.282,260.600 140.467 C 262.232 139.918,267.172 139.900,268.840 140.439 M316.900 140.859 C 327.771 144.290,327.473 157.056,316.447 160.262 C 313.240 161.194,308.062 160.861,305.182 159.538 C 290.831 152.945,301.468 135.989,316.900 140.859 " stroke="none" fill="#ecc11f" fill-rule="evenodd"></path><path id="path2" d="M199.100 52.695 C 200.255 52.776,202.145 52.776,203.300 52.695 C 204.455 52.614,203.510 52.548,201.200 52.548 C 198.890 52.548,197.945 52.614,199.100 52.695 M199.100 110.682 C 199.595 110.778,200.405 110.778,200.900 110.682 C 201.395 110.587,200.990 110.509,200.000 110.509 C 199.010 110.509,198.605 110.587,199.100 110.682 M263.700 140.287 C 264.305 140.378,265.295 140.378,265.900 140.287 C 266.505 140.195,266.010 140.120,264.800 140.120 C 263.590 140.120,263.095 140.195,263.700 140.287 M310.500 140.287 C 311.105 140.378,312.095 140.378,312.700 140.287 C 313.305 140.195,312.810 140.120,311.600 140.120 C 310.390 140.120,309.895 140.195,310.500 140.287 M9.200 188.176 C 9.200 188.713,9.020 189.264,8.800 189.400 C 8.580 189.536,8.400 190.052,8.400 190.547 C 8.400 191.042,8.136 191.796,7.813 192.224 C 7.490 192.651,7.220 193.394,7.213 193.876 C 7.206 194.358,7.020 194.864,6.800 195.000 C 6.580 195.136,6.400 195.599,6.400 196.029 C 6.400 196.459,6.229 197.123,6.020 197.505 C 5.634 198.212,3.664 206.237,2.805 210.600 C 2.545 211.920,2.236 213.360,2.118 213.800 C -0.291 222.814,-0.159 244.823,2.379 257.500 C 2.611 258.655,2.969 260.455,3.175 261.500 C 3.526 263.278,3.738 264.177,4.829 268.500 C 5.065 269.435,5.354 270.785,5.473 271.500 C 5.591 272.215,5.848 272.800,6.044 272.800 C 6.240 272.800,6.400 273.239,6.400 273.776 C 6.400 274.313,6.580 274.864,6.800 275.000 C 7.020 275.136,7.200 275.576,7.200 275.978 C 7.200 276.380,7.469 277.224,7.798 277.854 C 8.126 278.484,8.396 279.394,8.398 279.876 C 8.399 280.358,8.580 280.864,8.800 281.000 C 9.020 281.136,9.200 281.578,9.200 281.983 C 9.200 282.388,9.740 283.745,10.400 285.000 C 11.060 286.255,11.600 287.494,11.600 287.753 C 11.600 288.346,16.527 298.215,17.279 299.126 C 17.584 299.497,18.094 300.340,18.412 301.000 C 19.134 302.503,20.503 304.557,20.900 304.733 C 21.065 304.807,21.200 305.168,21.200 305.537 C 21.200 305.906,21.560 306.432,22.000 306.707 C 22.440 306.982,22.800 307.453,22.800 307.754 C 22.800 308.056,23.089 308.542,23.442 308.835 C 23.795 309.127,24.252 309.735,24.459 310.184 C 25.190 311.774,25.912 312.864,26.950 313.947 C 27.527 314.550,28.000 315.225,28.000 315.447 C 28.000 315.669,28.540 316.368,29.200 317.000 C 29.860 317.632,30.400 318.348,30.400 318.590 C 30.400 318.832,31.300 319.917,32.400 321.000 C 33.500 322.083,34.400 323.158,34.400 323.388 C 34.400 323.930,52.476 342.000,53.018 342.000 C 53.245 342.000,54.317 342.900,55.400 344.000 C 56.483 345.100,57.565 346.000,57.804 346.000 C 58.042 346.000,58.941 346.720,59.800 347.600 C 60.659 348.480,61.562 349.200,61.806 349.200 C 62.051 349.200,62.768 349.740,63.400 350.400 C 64.032 351.060,64.758 351.600,65.013 351.600 C 65.268 351.600,65.802 351.960,66.200 352.400 C 66.598 352.840,67.078 353.200,67.266 353.200 C 67.454 353.200,68.172 353.740,68.863 354.400 C 69.554 355.060,70.362 355.600,70.659 355.600 C 70.957 355.600,71.200 355.750,71.200 355.932 C 71.200 356.115,71.695 356.517,72.300 356.824 C 72.905 357.132,73.957 357.792,74.638 358.292 C 75.319 358.791,76.056 359.200,76.276 359.200 C 76.496 359.200,77.002 359.560,77.400 360.000 C 77.798 360.440,78.280 360.800,78.470 360.800 C 78.660 360.800,79.577 361.288,80.508 361.884 C 81.439 362.480,83.190 363.487,84.400 364.121 C 85.610 364.755,86.828 365.462,87.107 365.692 C 87.925 366.366,100.934 372.800,101.478 372.800 C 101.752 372.800,102.586 373.143,103.333 373.562 C 104.079 373.981,105.704 374.644,106.945 375.035 C 108.185 375.426,109.200 375.893,109.200 376.073 C 109.200 376.253,109.472 376.400,109.804 376.400 C 110.137 376.400,111.172 376.745,112.104 377.167 C 113.037 377.588,114.970 378.329,116.400 378.813 C 117.830 379.297,119.171 379.852,119.380 380.047 C 119.589 380.241,120.163 380.400,120.656 380.400 C 121.149 380.400,121.664 380.580,121.800 380.800 C 121.936 381.020,122.476 381.200,123.000 381.200 C 123.524 381.200,124.064 381.380,124.200 381.600 C 124.336 381.820,124.876 382.000,125.400 382.000 C 125.924 382.000,126.464 382.180,126.600 382.400 C 126.736 382.620,127.242 382.803,127.724 382.806 C 128.681 382.813,131.420 383.687,131.859 384.126 C 132.010 384.277,132.643 384.400,133.267 384.400 C 133.890 384.400,134.400 384.580,134.400 384.800 C 134.400 385.020,135.019 385.200,135.776 385.200 C 136.533 385.200,137.264 385.380,137.400 385.600 C 137.536 385.820,138.256 386.000,139.000 386.000 C 139.744 386.000,140.464 386.180,140.600 386.400 C 140.736 386.620,141.456 386.800,142.200 386.800 C 142.944 386.800,143.664 386.980,143.800 387.200 C 143.936 387.420,144.836 387.600,145.800 387.600 C 146.764 387.600,147.664 387.780,147.800 388.000 C 147.936 388.220,148.836 388.400,149.800 388.400 C 150.764 388.400,151.664 388.580,151.800 388.800 C 151.936 389.020,152.746 389.200,153.600 389.200 C 154.454 389.200,155.264 389.380,155.400 389.600 C 155.536 389.820,156.616 390.000,157.800 390.000 C 158.984 390.000,160.064 390.180,160.200 390.400 C 160.336 390.620,161.397 390.800,162.557 390.800 C 163.717 390.800,164.800 390.935,164.964 391.100 C 165.266 391.405,171.486 391.958,184.800 392.865 C 197.787 393.749,207.952 393.521,228.670 391.881 C 232.008 391.616,234.873 391.265,235.036 391.100 C 235.200 390.935,236.283 390.800,237.443 390.800 C 238.603 390.800,239.664 390.620,239.800 390.400 C 239.936 390.180,241.016 390.000,242.200 390.000 C 243.384 390.000,244.464 389.820,244.600 389.600 C 244.736 389.380,245.546 389.200,246.400 389.200 C 247.254 389.200,248.064 389.020,248.200 388.800 C 248.336 388.580,249.236 388.400,250.200 388.400 C 251.164 388.400,252.064 388.220,252.200 388.000 C 252.336 387.780,253.236 387.600,254.200 387.600 C 255.164 387.600,256.064 387.420,256.200 387.200 C 256.336 386.980,257.056 386.800,257.800 386.800 C 258.544 386.800,259.264 386.620,259.400 386.400 C 259.536 386.180,260.256 386.000,261.000 386.000 C 261.744 386.000,262.464 385.820,262.600 385.600 C 262.736 385.380,263.467 385.200,264.224 385.200 C 264.981 385.200,265.600 385.020,265.600 384.800 C 265.600 384.580,266.110 384.400,266.733 384.400 C 267.357 384.400,267.990 384.277,268.141 384.126 C 268.580 383.687,271.319 382.813,272.276 382.806 C 272.758 382.803,273.264 382.620,273.400 382.400 C 273.536 382.180,274.076 382.000,274.600 382.000 C 275.124 382.000,275.664 381.820,275.800 381.600 C 275.936 381.380,276.476 381.200,277.000 381.200 C 277.524 381.200,278.064 381.020,278.200 380.800 C 278.336 380.580,278.851 380.400,279.344 380.400 C 279.837 380.400,280.411 380.241,280.620 380.047 C 280.829 379.852,282.170 379.297,283.600 378.813 C 285.030 378.329,286.963 377.588,287.896 377.167 C 288.828 376.745,289.863 376.400,290.196 376.400 C 290.528 376.400,290.800 376.253,290.800 376.073 C 290.800 375.893,291.815 375.426,293.055 375.035 C 294.296 374.644,295.921 373.981,296.667 373.562 C 297.414 373.143,298.248 372.800,298.522 372.800 C 299.066 372.800,312.075 366.366,312.893 365.692 C 313.172 365.462,314.390 364.755,315.600 364.121 C 316.810 363.487,318.561 362.480,319.492 361.884 C 320.423 361.288,321.340 360.800,321.530 360.800 C 321.720 360.800,322.202 360.440,322.600 360.000 C 322.998 359.560,323.504 359.200,323.724 359.200 C 323.944 359.200,324.681 358.791,325.362 358.292 C 326.043 357.792,327.095 357.132,327.700 356.824 C 328.305 356.517,328.800 356.115,328.800 355.932 C 328.800 355.750,329.043 355.600,329.341 355.600 C 329.638 355.600,330.446 355.060,331.137 354.400 C 331.828 353.740,332.546 353.200,332.734 353.200 C 332.922 353.200,333.402 352.840,333.800 352.400 C 334.198 351.960,334.732 351.600,334.987 351.600 C 335.242 351.600,335.968 351.060,336.600 350.400 C 337.232 349.740,337.949 349.200,338.194 349.200 C 338.438 349.200,339.341 348.480,340.200 347.600 C 341.059 346.720,341.958 346.000,342.196 346.000 C 342.435 346.000,343.517 345.100,344.600 344.000 C 345.683 342.900,346.758 342.000,346.988 342.000 C 347.530 342.000,365.600 323.924,365.600 323.382 C 365.600 323.155,366.500 322.083,367.600 321.000 C 368.700 319.917,369.600 318.832,369.600 318.590 C 369.600 318.348,370.140 317.632,370.800 317.000 C 371.460 316.368,372.000 315.669,372.000 315.447 C 372.000 315.225,372.473 314.550,373.050 313.947 C 374.088 312.864,374.810 311.774,375.541 310.184 C 375.748 309.735,376.205 309.127,376.558 308.835 C 376.911 308.542,377.200 308.056,377.200 307.754 C 377.200 307.453,377.560 306.982,378.000 306.707 C 378.440 306.432,378.800 305.906,378.800 305.537 C 378.800 305.168,378.935 304.807,379.100 304.733 C 379.497 304.557,380.866 302.503,381.588 301.000 C 381.906 300.340,382.416 299.497,382.721 299.126 C 383.473 298.215,388.400 288.346,388.400 287.753 C 388.400 287.494,388.940 286.255,389.600 285.000 C 390.260 283.745,390.800 282.388,390.800 281.983 C 390.800 281.578,390.980 281.136,391.200 281.000 C 391.420 280.864,391.601 280.358,391.602 279.876 C 391.604 279.394,391.874 278.484,392.202 277.854 C 392.531 277.224,392.800 276.457,392.800 276.149 C 392.800 275.841,392.963 275.277,393.163 274.895 C 393.577 274.103,394.727 270.484,395.227 268.400 C 395.412 267.630,395.763 266.190,396.007 265.200 C 396.251 264.210,396.619 262.545,396.825 261.500 C 397.031 260.455,397.389 258.655,397.621 257.500 C 400.159 244.823,400.291 222.814,397.882 213.800 C 397.764 213.360,397.455 211.920,397.195 210.600 C 396.336 206.237,394.366 198.212,393.980 197.505 C 393.771 197.123,393.600 196.459,393.600 196.029 C 393.600 195.599,393.420 195.136,393.200 195.000 C 392.980 194.864,392.760 194.268,392.712 193.676 C 392.663 193.084,392.497 198.000,392.342 204.600 C 392.004 219.019,391.727 221.915,389.186 237.600 C 388.954 239.030,388.601 241.280,388.400 242.600 C 386.261 256.670,384.714 263.559,381.711 272.400 C 374.597 293.341,359.402 315.725,343.042 329.361 C 339.520 332.297,339.614 332.495,339.606 322.100 C 339.601 315.036,339.504 313.600,339.033 313.600 C 338.722 313.600,338.407 313.735,338.333 313.900 C 338.147 314.320,323.840 323.765,319.000 326.665 C 295.457 340.768,269.681 350.962,245.800 355.614 C 234.046 357.904,225.666 359.074,218.300 359.453 L 214.400 359.653 214.400 363.403 C 214.400 365.471,214.221 367.264,214.000 367.400 C 213.770 367.542,213.600 369.663,213.600 372.400 C 213.600 375.137,213.430 377.258,213.200 377.400 C 212.980 377.536,212.800 378.357,212.800 379.224 C 212.800 380.091,212.665 380.806,212.500 380.813 C 212.335 380.820,210.310 381.084,208.000 381.400 C 194.572 383.237,165.291 380.516,145.600 375.600 C 144.830 375.408,143.300 375.042,142.200 374.787 C 141.100 374.532,139.750 374.182,139.200 374.008 C 138.650 373.835,137.390 373.464,136.400 373.184 C 128.509 370.953,116.979 366.746,108.800 363.113 C 105.896 361.823,96.218 357.068,96.000 356.824 C 95.890 356.701,95.080 356.223,94.200 355.762 C 86.584 351.771,74.037 343.448,68.363 338.622 C 67.572 337.950,66.492 337.056,65.963 336.635 C 53.039 326.368,39.507 310.592,30.935 295.800 C 25.232 285.959,22.210 278.898,18.434 266.600 C 17.112 262.290,15.444 253.824,14.417 246.200 C 14.209 244.660,13.866 242.500,13.655 241.400 C 13.306 239.584,12.541 235.527,11.543 230.200 C 9.932 221.597,9.538 216.979,9.346 204.437 C 9.225 196.568,9.303 192.537,9.583 192.257 C 10.117 191.723,10.132 187.200,9.600 187.200 C 9.380 187.200,9.200 187.639,9.200 188.176 M366.800 226.200 C 366.800 226.970,366.620 227.600,366.400 227.600 C 366.180 227.600,366.000 228.052,366.000 228.605 C 366.000 229.158,365.841 229.923,365.646 230.305 C 365.451 230.687,364.899 232.260,364.418 233.800 C 363.938 235.340,363.197 237.363,362.772 238.296 C 362.347 239.228,362.000 240.176,362.000 240.401 C 362.000 240.626,361.823 241.123,361.606 241.505 C 361.390 241.887,360.654 243.460,359.971 245.000 C 357.482 250.613,351.632 261.265,350.414 262.400 C 350.297 262.510,349.405 263.770,348.434 265.200 C 347.462 266.630,345.878 268.790,344.913 270.000 C 343.948 271.210,342.872 272.560,342.522 273.000 C 338.923 277.530,330.213 286.481,327.200 288.745 C 326.430 289.324,325.300 290.318,324.688 290.954 C 324.077 291.590,323.447 291.970,323.288 291.800 C 323.130 291.630,323.225 291.410,323.500 291.312 C 323.870 291.180,324.000 289.578,324.000 285.167 C 324.000 281.885,324.145 279.200,324.323 279.200 C 324.786 279.200,325.606 253.749,325.211 251.627 C 325.029 250.652,324.923 249.662,324.975 249.427 C 325.027 249.192,324.993 249.135,324.901 249.300 C 324.809 249.465,324.493 249.600,324.200 249.600 C 323.907 249.600,323.607 249.752,323.533 249.937 C 323.341 250.422,309.766 259.600,309.240 259.600 C 308.998 259.600,308.799 259.735,308.797 259.900 C 308.795 260.065,308.390 260.400,307.897 260.645 C 307.404 260.889,305.470 262.019,303.600 263.155 C 299.468 265.667,284.253 273.239,280.100 274.851 C 279.605 275.043,278.705 275.404,278.100 275.654 C 277.495 275.903,276.640 276.239,276.200 276.400 C 275.760 276.561,274.950 276.879,274.400 277.106 C 273.850 277.333,272.770 277.736,272.000 278.000 C 271.230 278.264,270.240 278.633,269.800 278.820 C 268.718 279.278,260.327 281.924,257.200 282.793 C 256.210 283.068,254.950 283.435,254.400 283.608 C 253.850 283.782,252.500 284.132,251.400 284.387 C 250.300 284.642,248.770 285.008,248.000 285.200 C 243.228 286.391,237.564 287.507,234.500 287.858 L 232.400 288.099 232.400 290.650 C 232.400 292.083,232.575 293.200,232.800 293.200 C 233.040 293.200,233.200 294.800,233.200 297.200 C 233.200 299.600,233.360 301.200,233.600 301.200 C 233.829 301.200,234.000 302.400,234.000 304.000 C 234.000 305.600,234.171 306.800,234.400 306.800 C 234.620 306.800,234.800 307.790,234.800 309.000 C 234.800 310.210,234.980 311.200,235.200 311.200 C 235.420 311.200,235.600 311.905,235.600 312.767 C 235.600 313.645,235.820 314.422,236.100 314.536 C 236.479 314.690,236.458 314.837,236.015 315.146 C 235.345 315.612,235.343 320.502,236.013 320.733 C 236.226 320.807,236.400 321.392,236.400 322.033 C 236.400 322.675,236.580 323.200,236.800 323.200 C 237.020 323.200,237.200 323.830,237.200 324.600 C 237.200 325.370,237.380 326.000,237.600 326.000 C 237.820 326.000,238.000 326.540,238.000 327.200 C 238.000 327.860,238.180 328.400,238.400 328.400 C 238.620 328.400,238.800 328.911,238.800 329.536 C 238.800 330.719,237.811 331.243,234.600 331.761 C 204.602 336.593,182.521 336.265,156.200 330.597 C 147.705 328.768,148.679 329.004,143.700 327.567 C 142.875 327.329,141.703 327.038,141.095 326.921 C 140.487 326.804,139.892 326.549,139.771 326.354 C 139.651 326.159,139.201 326.000,138.771 326.000 C 138.341 326.000,137.677 325.842,137.295 325.649 C 136.913 325.456,135.880 325.084,135.000 324.823 C 133.369 324.338,131.949 323.786,130.705 323.153 C 130.323 322.959,129.736 322.800,129.400 322.800 C 129.064 322.800,128.477 322.641,128.095 322.447 C 127.453 322.120,126.649 321.780,124.300 320.840 C 123.805 320.642,122.547 320.102,121.504 319.640 C 120.462 319.178,119.519 318.800,119.409 318.800 C 118.345 318.800,101.659 309.980,98.130 307.552 C 97.209 306.918,96.338 306.400,96.193 306.400 C 95.496 306.400,81.407 296.210,79.600 294.400 C 79.490 294.289,78.050 293.035,76.400 291.613 C 71.869 287.707,64.863 280.606,60.387 275.382 C 57.063 271.503,50.809 262.694,48.187 258.200 C 45.898 254.276,45.617 253.754,43.780 250.000 C 42.758 247.910,41.579 245.508,41.161 244.662 C 40.742 243.816,40.400 242.871,40.400 242.562 C 40.400 242.253,40.220 242.000,40.000 242.000 C 39.780 242.000,39.600 241.561,39.600 241.024 C 39.600 240.487,39.420 239.936,39.200 239.800 C 38.980 239.664,38.800 239.203,38.800 238.776 C 38.800 238.349,38.620 238.000,38.400 238.000 C 38.180 238.000,38.000 237.561,38.000 237.024 C 38.000 236.487,37.820 235.936,37.600 235.800 C 37.380 235.664,37.200 235.113,37.200 234.576 C 37.200 234.039,37.006 233.600,36.768 233.600 C 35.704 233.600,39.998 246.373,43.424 253.400 C 63.225 294.009,106.635 323.131,163.800 334.154 C 186.315 338.495,215.529 340.225,231.957 338.188 C 234.464 337.878,236.624 337.688,236.757 337.767 C 237.301 338.087,248.290 336.079,254.400 334.543 C 255.830 334.183,257.270 333.898,257.600 333.910 C 257.930 333.922,258.920 333.656,259.800 333.319 C 260.680 332.982,262.505 332.471,263.856 332.183 C 265.206 331.896,267.132 331.287,268.134 330.830 C 269.136 330.374,270.248 330.000,270.604 330.000 C 270.960 330.000,272.095 329.651,273.126 329.224 C 274.157 328.797,276.260 327.968,277.800 327.383 C 279.340 326.798,281.410 325.912,282.400 325.414 C 283.390 324.915,284.650 324.371,285.200 324.205 C 286.510 323.807,290.016 322.107,295.152 319.379 C 301.497 316.008,317.593 305.067,319.800 302.625 C 320.020 302.382,320.948 301.640,321.862 300.977 C 324.185 299.293,329.391 294.494,333.772 290.000 C 350.902 272.429,361.172 254.255,366.322 232.400 C 366.871 230.068,367.377 224.800,367.052 224.800 C 366.913 224.800,366.800 225.430,366.800 226.200 " stroke="none" fill="#646564" fill-rule="evenodd"></path><path id="path3" d="M187.000 53.048 C 183.920 53.314,180.907 53.723,180.303 53.955 C 179.700 54.187,178.937 54.274,178.608 54.148 C 178.279 54.021,177.062 54.153,175.905 54.440 C 174.747 54.728,173.653 54.922,173.474 54.873 C 173.295 54.823,172.395 54.992,171.474 55.247 C 170.553 55.501,169.304 55.755,168.697 55.809 C 168.090 55.863,167.348 56.111,167.047 56.361 C 166.747 56.610,166.240 56.713,165.920 56.591 C 165.600 56.468,164.812 56.579,164.169 56.838 C 163.526 57.096,162.566 57.364,162.036 57.433 C 161.506 57.503,160.966 57.703,160.836 57.880 C 160.706 58.056,160.285 58.215,159.900 58.233 C 158.013 58.323,157.569 58.427,157.759 58.733 C 157.872 58.917,157.398 59.067,156.705 59.067 C 156.012 59.067,155.374 59.278,155.288 59.536 C 155.202 59.794,154.984 59.914,154.804 59.803 C 154.376 59.538,147.444 61.959,142.723 64.023 C 120.993 73.522,103.586 87.553,92.282 104.681 C 89.639 108.687,87.593 112.203,87.609 112.714 C 87.620 113.078,89.179 111.101,89.191 110.708 C 89.201 110.380,91.442 106.736,93.316 104.000 C 98.552 96.356,107.318 87.175,115.180 81.103 C 116.907 79.769,127.114 72.800,127.341 72.800 C 127.430 72.800,128.560 72.161,129.852 71.380 C 137.606 66.690,151.029 61.240,162.000 58.326 C 164.861 57.566,165.972 57.309,170.300 56.402 C 179.915 54.387,189.888 53.408,200.800 53.408 C 211.466 53.408,222.072 54.448,231.300 56.398 C 235.829 57.356,236.758 57.572,239.600 58.326 C 250.553 61.236,263.165 66.330,271.400 71.171 C 272.720 71.947,274.340 72.875,275.000 73.232 C 275.660 73.589,276.605 74.475,277.100 75.200 C 278.126 76.702,278.350 76.106,277.339 74.563 C 276.364 73.075,273.796 71.443,267.044 68.023 C 259.572 64.238,250.156 60.248,249.275 60.493 C 249.124 60.536,248.591 60.343,248.092 60.066 C 247.592 59.790,247.023 59.662,246.826 59.784 C 246.629 59.906,246.402 59.807,246.322 59.566 C 246.241 59.324,245.641 59.100,244.988 59.068 C 244.334 59.036,243.685 58.850,243.545 58.655 C 243.406 58.460,242.776 58.301,242.145 58.303 C 241.515 58.304,240.887 58.127,240.749 57.908 C 240.611 57.690,239.981 57.471,239.349 57.421 C 238.717 57.371,237.690 57.120,237.066 56.862 C 236.443 56.605,235.787 56.484,235.609 56.594 C 235.431 56.705,234.628 56.520,233.825 56.185 C 233.022 55.849,232.212 55.669,232.025 55.785 C 231.838 55.900,231.015 55.715,230.196 55.372 C 229.377 55.030,228.445 54.851,228.124 54.974 C 227.804 55.097,227.203 55.016,226.788 54.794 C 226.374 54.572,225.082 54.314,223.917 54.221 C 222.753 54.128,220.848 53.844,219.684 53.589 C 218.520 53.335,217.344 53.213,217.071 53.317 C 216.798 53.422,215.590 53.342,214.387 53.139 C 210.999 52.566,193.242 52.508,187.000 53.048 M186.840 102.400 C 186.767 104.959,190.812 108.972,194.759 110.257 C 202.454 112.762,213.156 108.197,213.180 102.400 C 213.181 102.070,212.852 102.520,212.448 103.400 C 211.324 105.851,207.490 109.200,205.808 109.200 C 205.474 109.200,205.200 109.350,205.200 109.534 C 205.200 109.718,204.435 109.899,203.500 109.935 C 202.565 109.972,201.740 110.181,201.667 110.401 C 201.494 110.918,198.508 110.923,198.333 110.407 C 198.260 110.191,197.480 109.966,196.600 109.907 C 195.720 109.848,194.892 109.653,194.760 109.473 C 194.628 109.294,194.268 109.104,193.960 109.052 C 191.904 108.702,188.656 105.829,187.571 103.400 C 187.178 102.520,186.849 102.070,186.840 102.400 M85.018 117.818 C 84.672 118.646,84.471 119.405,84.571 119.505 C 84.671 119.605,85.036 119.009,85.382 118.182 C 85.728 117.354,85.929 116.595,85.829 116.495 C 85.729 116.395,85.364 116.991,85.018 117.818 M82.200 124.800 C 82.050 125.273,82.017 125.750,82.127 125.860 C 82.237 125.970,82.450 125.673,82.600 125.200 C 82.750 124.727,82.783 124.250,82.673 124.140 C 82.563 124.030,82.350 124.327,82.200 124.800 M260.677 140.560 C 260.195 140.758,259.620 140.948,259.400 140.982 C 256.297 141.459,251.518 146.320,251.620 148.896 C 251.631 149.173,251.990 148.680,252.419 147.800 C 256.329 139.770,269.858 138.366,275.852 145.369 C 276.593 146.235,277.200 146.764,277.200 146.544 C 277.200 145.087,271.701 140.813,270.258 141.149 C 270.070 141.192,269.666 141.021,269.361 140.767 C 268.688 140.209,261.922 140.048,260.677 140.560 M307.311 140.680 C 306.799 140.946,306.250 141.173,306.090 141.186 C 303.811 141.370,298.370 146.103,299.331 147.064 C 299.436 147.169,299.825 146.748,300.194 146.128 C 304.750 138.486,320.664 139.573,324.233 147.769 C 324.527 148.446,324.776 148.768,324.784 148.484 C 324.831 146.935,320.328 141.404,319.259 141.699 C 319.117 141.738,318.619 141.558,318.153 141.299 C 317.687 141.040,317.196 140.937,317.062 141.071 C 316.929 141.205,316.546 141.087,316.212 140.810 C 315.399 140.135,308.554 140.035,307.311 140.680 M78.493 142.800 C 78.493 143.570,78.575 143.885,78.676 143.500 C 78.776 143.115,78.776 142.485,78.676 142.100 C 78.575 141.715,78.493 142.030,78.493 142.800 M373.342 147.800 C 373.341 149.780,373.408 150.640,373.492 149.712 C 373.576 148.784,373.577 147.164,373.495 146.112 C 373.412 145.060,373.343 145.820,373.342 147.800 M28.083 156.800 C 28.068 161.310,28.184 165.322,28.339 165.717 C 28.606 166.393,28.511 151.106,28.237 149.400 C 28.167 148.960,28.097 152.290,28.083 156.800 M199.352 150.581 C 199.216 150.935,199.723 151.678,200.647 152.481 C 202.534 154.121,210.312 161.095,213.006 163.563 C 214.109 164.573,216.718 166.930,218.805 168.800 C 220.891 170.670,223.228 172.771,223.999 173.469 C 224.770 174.167,225.850 175.126,226.400 175.600 C 226.950 176.074,228.300 177.303,229.400 178.331 C 230.500 179.359,232.210 180.902,233.200 181.759 C 234.190 182.617,235.990 184.237,237.200 185.360 C 238.410 186.482,240.210 188.103,241.200 188.960 C 242.190 189.817,243.903 191.347,245.006 192.359 C 246.109 193.372,248.718 195.730,250.805 197.600 C 254.096 200.550,256.544 202.748,258.156 204.200 C 258.400 204.421,260.307 206.131,262.394 208.000 C 264.481 209.870,267.091 212.237,268.194 213.259 C 269.297 214.282,271.095 215.902,272.188 216.859 C 273.281 217.817,275.046 219.436,276.109 220.457 C 277.172 221.478,277.986 222.025,277.918 221.671 C 277.814 221.131,269.776 213.673,257.434 202.666 C 253.751 199.381,254.069 199.668,251.583 197.400 C 249.392 195.402,243.299 189.934,242.000 188.800 C 241.622 188.470,239.712 186.747,237.756 184.971 C 235.800 183.196,232.310 180.050,230.000 177.980 C 227.690 175.911,225.710 174.120,225.600 174.000 C 225.490 173.881,220.990 169.830,215.600 164.998 C 210.210 160.166,204.990 155.465,204.000 154.551 C 203.010 153.636,201.615 152.402,200.899 151.808 C 200.183 151.213,199.699 150.563,199.823 150.364 C 199.946 150.164,199.941 150.000,199.811 150.000 C 199.681 150.000,199.475 150.261,199.352 150.581 M373.281 159.600 C 373.232 161.690,373.099 164.120,372.985 165.000 C 372.808 166.375,372.839 166.464,373.202 165.631 C 373.444 165.077,373.571 162.769,373.498 160.231 L 373.371 155.800 373.281 159.600 M29.072 174.500 L 29.287 182.400 20.444 182.400 C 14.245 182.400,11.600 182.532,11.600 182.843 C 11.600 183.086,11.360 183.193,11.067 183.081 C 10.773 182.968,10.533 183.112,10.533 183.400 C 10.533 183.688,10.775 183.831,11.071 183.717 C 11.434 183.578,11.529 183.720,11.363 184.153 C 11.227 184.506,10.974 184.708,10.801 184.600 C 10.289 184.284,9.902 186.412,9.976 189.132 C 10.013 190.525,9.847 191.903,9.605 192.194 C 9.298 192.563,9.220 196.275,9.346 204.462 C 9.538 216.979,9.933 221.600,11.543 230.200 C 12.541 235.527,13.306 239.584,13.655 241.400 C 13.866 242.500,14.209 244.660,14.417 246.200 C 15.444 253.824,17.112 262.290,18.434 266.600 C 26.945 294.326,43.602 318.870,65.963 336.635 C 66.492 337.056,67.572 337.946,68.363 338.613 C 69.153 339.279,70.880 340.621,72.200 341.593 C 73.520 342.565,74.915 343.622,75.300 343.942 C 75.685 344.262,76.000 344.355,76.000 344.148 C 76.000 343.942,75.484 343.467,74.852 343.095 C 67.965 339.026,52.589 324.476,44.800 314.656 C 44.470 314.240,43.795 313.480,43.300 312.968 C 42.805 312.456,42.400 311.910,42.400 311.756 C 42.400 311.602,41.949 310.885,41.398 310.162 C 40.848 309.440,40.558 308.749,40.756 308.627 C 40.953 308.505,41.243 306.784,41.400 304.803 C 41.557 302.821,41.846 301.200,42.042 301.200 C 42.239 301.200,42.400 300.480,42.400 299.600 C 42.400 298.720,42.560 298.000,42.756 298.000 C 43.633 298.000,43.464 295.019,42.530 294.012 C 42.019 293.460,41.600 292.884,41.600 292.733 C 41.600 292.581,41.364 292.219,41.074 291.929 C 37.655 288.489,24.385 267.536,24.407 265.609 C 24.410 265.270,24.742 265.532,25.154 266.200 C 25.561 266.860,27.042 269.288,28.445 271.595 C 41.630 293.288,66.763 317.195,87.600 327.866 C 90.706 329.457,90.895 329.471,92.527 328.237 C 97.707 324.318,105.409 328.324,104.704 334.571 C 104.599 335.509,104.709 336.389,104.959 336.611 C 106.279 337.777,115.271 341.830,120.400 343.570 C 121.830 344.055,123.360 344.611,123.800 344.805 C 124.909 345.293,131.187 347.320,134.800 348.356 C 136.450 348.830,138.340 349.378,139.000 349.575 C 142.515 350.624,154.303 353.314,158.400 354.002 C 171.431 356.192,174.086 356.501,187.800 357.427 C 204.311 358.542,224.089 357.544,240.200 354.784 C 241.520 354.558,243.590 354.218,244.800 354.030 C 246.010 353.841,247.720 353.552,248.600 353.387 C 249.480 353.222,250.077 353.220,249.926 353.384 C 248.902 354.495,230.764 357.451,216.400 358.847 C 210.453 359.425,184.628 359.549,176.500 359.039 L 170.800 358.681 170.800 362.517 C 170.800 364.643,170.622 366.463,170.400 366.600 C 170.180 366.736,170.000 367.906,170.000 369.200 C 170.000 370.494,169.820 371.664,169.600 371.800 C 169.380 371.936,169.200 373.016,169.200 374.200 C 169.200 375.384,169.020 376.464,168.800 376.600 C 168.580 376.736,168.400 377.356,168.400 377.978 L 168.400 379.108 165.700 378.925 C 164.215 378.824,162.640 378.584,162.200 378.390 C 161.760 378.197,160.500 377.952,159.400 377.846 C 158.300 377.739,156.500 377.478,155.400 377.264 C 154.300 377.051,152.680 376.754,151.800 376.605 C 150.920 376.456,149.750 376.188,149.200 376.010 C 148.650 375.831,147.120 375.462,145.800 375.188 C 144.480 374.914,141.812 374.248,139.870 373.708 C 137.929 373.168,136.243 372.824,136.123 372.943 C 136.004 373.063,136.422 373.274,137.053 373.413 C 137.684 373.552,138.650 373.813,139.200 373.994 C 139.750 374.175,141.100 374.532,142.200 374.787 C 143.300 375.042,144.830 375.408,145.600 375.600 C 165.291 380.516,194.572 383.237,208.000 381.400 C 210.310 381.084,212.335 380.820,212.500 380.813 C 212.665 380.806,212.800 380.091,212.800 379.224 C 212.800 378.357,212.980 377.536,213.200 377.400 C 213.430 377.258,213.600 375.137,213.600 372.400 C 213.600 369.663,213.770 367.542,214.000 367.400 C 214.221 367.264,214.400 365.471,214.400 363.403 L 214.400 359.653 218.300 359.453 C 225.666 359.074,234.046 357.904,245.800 355.614 C 269.681 350.962,295.457 340.768,319.000 326.665 C 323.840 323.765,338.147 314.320,338.333 313.900 C 338.407 313.735,338.722 313.600,339.033 313.600 C 339.504 313.600,339.601 315.036,339.606 322.100 C 339.614 332.495,339.520 332.297,343.042 329.361 C 355.543 318.941,370.950 298.585,376.638 284.972 C 377.713 282.399,376.912 283.593,374.809 287.700 C 371.032 295.075,365.574 303.600,364.629 303.600 C 363.999 303.600,364.861 291.853,365.825 287.300 C 366.248 285.299,365.627 285.681,361.919 289.700 C 353.041 299.323,349.350 302.423,356.800 294.000 C 367.530 281.868,378.131 264.928,383.146 251.900 C 383.470 251.060,383.858 250.105,384.774 247.900 C 384.979 247.405,385.376 246.280,385.655 245.400 C 386.566 242.532,386.754 243.016,386.525 247.645 C 386.401 250.150,386.142 252.371,385.950 252.580 C 385.757 252.789,385.600 253.668,385.600 254.534 C 385.600 255.399,385.425 256.758,385.212 257.554 C 384.998 258.349,384.351 260.980,383.775 263.400 C 383.198 265.820,382.364 268.936,381.921 270.324 C 381.478 271.712,381.205 272.938,381.315 273.048 C 381.596 273.330,384.172 264.903,385.241 260.200 C 386.124 256.315,387.370 249.377,388.400 242.600 C 388.601 241.280,388.954 239.030,389.186 237.600 C 391.781 221.580,392.034 218.826,392.244 204.300 C 392.364 196.029,392.288 192.000,392.011 192.000 C 391.771 192.000,391.600 190.906,391.600 189.376 C 391.600 187.729,391.451 186.845,391.200 187.000 C 390.980 187.136,390.800 187.072,390.800 186.857 C 390.800 186.642,391.025 186.362,391.300 186.233 C 391.699 186.047,391.699 185.953,391.298 185.766 C 391.021 185.637,390.914 185.339,391.059 185.104 C 391.217 184.849,391.134 184.793,390.855 184.966 C 390.598 185.125,390.491 185.423,390.617 185.628 C 390.744 185.832,390.556 186.000,390.200 186.000 C 389.844 186.000,389.637 185.865,389.739 185.700 C 389.842 185.535,388.952 185.462,387.763 185.537 C 386.382 185.625,385.600 185.516,385.600 185.237 C 385.600 184.938,383.489 184.800,378.938 184.800 L 372.276 184.800 372.554 176.718 C 372.706 172.272,372.752 168.717,372.655 168.818 C 372.559 168.918,372.011 174.220,371.440 180.600 C 370.868 186.980,370.224 193.910,370.009 196.000 C 369.793 198.090,369.429 201.780,369.200 204.200 C 368.362 213.025,367.909 216.688,367.123 221.000 C 366.176 226.195,364.201 233.500,362.799 237.000 C 362.622 237.440,362.071 238.880,361.573 240.200 C 361.076 241.520,359.978 244.081,359.134 245.892 C 358.290 247.702,357.600 249.352,357.600 249.559 C 357.600 249.765,357.465 249.993,357.300 250.067 C 357.135 250.140,356.557 251.100,356.015 252.200 C 355.474 253.300,353.901 256.045,352.522 258.300 C 351.142 260.555,350.145 262.397,350.307 262.392 C 351.002 262.374,357.289 251.062,359.973 245.000 C 360.655 243.460,361.390 241.887,361.606 241.505 C 361.823 241.123,362.000 240.626,362.000 240.401 C 362.000 240.176,362.347 239.228,362.772 238.296 C 363.197 237.363,363.938 235.340,364.418 233.800 C 364.899 232.260,365.451 230.687,365.646 230.305 C 365.841 229.923,366.000 229.158,366.000 228.605 C 366.000 228.052,366.169 227.600,366.376 227.600 C 366.583 227.600,366.829 227.015,366.923 226.300 C 367.017 225.585,367.016 226.260,366.920 227.800 C 366.729 230.869,366.448 232.233,364.778 238.200 C 358.751 259.731,346.221 279.058,326.796 296.786 C 324.997 298.428,322.776 300.314,321.862 300.977 C 320.948 301.640,320.020 302.382,319.800 302.625 C 317.593 305.067,301.497 316.008,295.152 319.379 C 290.016 322.107,286.510 323.807,285.200 324.205 C 284.650 324.371,283.390 324.915,282.400 325.414 C 281.410 325.912,279.340 326.798,277.800 327.383 C 276.260 327.968,274.157 328.797,273.126 329.224 C 272.095 329.651,270.960 330.000,270.604 330.000 C 270.248 330.000,269.136 330.374,268.134 330.830 C 267.132 331.287,265.206 331.896,263.856 332.183 C 262.505 332.471,260.680 332.982,259.800 333.319 C 258.920 333.656,257.930 333.922,257.600 333.910 C 257.270 333.898,255.830 334.183,254.400 334.543 C 248.290 336.079,237.301 338.087,236.757 337.767 C 236.624 337.688,234.464 337.878,231.957 338.188 C 215.529 340.225,186.315 338.495,163.800 334.154 C 106.635 323.131,63.225 294.009,43.424 253.400 C 39.998 246.373,35.704 233.600,36.768 233.600 C 37.006 233.600,37.200 234.039,37.200 234.576 C 37.200 235.113,37.380 235.664,37.600 235.800 C 37.820 235.936,38.000 236.487,38.000 237.024 C 38.000 237.561,38.180 238.000,38.400 238.000 C 38.620 238.000,38.800 238.349,38.800 238.776 C 38.800 239.203,38.980 239.664,39.200 239.800 C 39.420 239.936,39.600 240.487,39.600 241.024 C 39.600 241.561,39.780 242.000,40.000 242.000 C 40.220 242.000,40.400 242.253,40.400 242.562 C 40.400 242.871,40.742 243.816,41.161 244.662 C 41.579 245.508,42.755 247.910,43.774 250.000 C 45.779 254.114,47.456 257.169,48.052 257.793 C 48.258 258.010,46.900 255.130,45.033 251.393 C 40.586 242.491,38.988 238.474,36.444 229.800 C 35.036 224.999,33.811 218.452,33.225 212.600 C 31.917 199.532,31.389 194.091,30.797 187.600 C 30.567 185.070,30.195 181.110,29.972 178.800 C 29.749 176.490,29.407 172.800,29.212 170.600 C 28.936 167.488,28.905 168.353,29.072 174.500 M11.200 179.824 C 11.200 180.387,11.363 180.746,11.562 180.623 C 11.762 180.500,11.831 180.039,11.716 179.600 C 11.428 178.499,11.200 178.598,11.200 179.824 M337.971 236.822 C 337.437 237.284,336.100 238.513,335.000 239.552 C 331.386 242.969,324.171 248.952,320.474 251.600 C 318.477 253.030,316.833 254.339,316.821 254.509 C 316.797 254.861,323.329 250.385,323.533 249.910 C 323.607 249.740,323.907 249.600,324.200 249.600 C 324.493 249.600,324.809 249.465,324.901 249.300 C 324.993 249.135,325.027 249.192,324.975 249.427 C 324.923 249.662,325.029 250.652,325.211 251.627 C 325.606 253.749,324.786 279.200,324.323 279.200 C 324.145 279.200,324.000 281.885,324.000 285.167 C 324.000 289.578,323.870 291.180,323.500 291.312 C 323.225 291.410,323.130 291.630,323.288 291.800 C 323.447 291.970,324.077 291.590,324.688 290.954 C 325.300 290.318,326.519 289.260,327.398 288.604 C 329.607 286.954,340.001 276.444,339.994 275.868 C 339.990 275.594,339.834 275.643,339.616 275.988 C 338.790 277.293,338.708 275.636,339.183 267.310 C 339.744 257.486,339.813 236.853,339.287 236.327 C 339.094 236.134,338.515 236.352,337.971 236.822 M387.435 242.298 C 386.998 242.735,386.699 242.040,387.012 241.317 C 387.310 240.632,387.332 240.633,387.497 241.331 C 387.593 241.734,387.565 242.169,387.435 242.298 M48.813 259.200 C 50.094 261.708,57.283 271.759,60.387 275.382 C 64.199 279.831,71.665 287.668,71.884 287.450 C 71.966 287.368,70.561 285.793,68.762 283.950 C 61.847 276.866,56.880 270.777,51.999 263.400 C 49.011 258.886,47.912 257.436,48.813 259.200 M347.480 265.900 C 346.236 267.605,344.815 269.540,344.320 270.200 C 343.664 271.076,343.618 271.244,344.148 270.820 C 345.080 270.076,350.292 262.800,349.894 262.800 C 349.809 262.800,348.723 264.195,347.480 265.900 M342.589 272.115 C 342.363 272.382,341.755 273.230,341.237 274.000 L 340.296 275.400 341.448 274.197 C 343.114 272.458,343.747 271.598,343.349 271.615 C 343.157 271.624,342.815 271.849,342.589 272.115 M380.573 274.243 C 380.438 274.659,380.181 275.360,380.003 275.800 C 379.824 276.240,379.272 277.680,378.777 279.000 C 378.281 280.320,377.723 281.571,377.538 281.780 C 377.352 281.989,377.205 282.439,377.212 282.780 C 377.222 283.301,377.288 283.291,377.622 282.719 C 378.467 281.269,381.257 273.924,381.044 273.711 C 380.920 273.587,380.708 273.826,380.573 274.243 M256.000 282.800 C 255.176 283.064,255.141 283.126,255.800 283.154 C 256.240 283.173,256.870 283.013,257.200 282.800 C 257.901 282.347,257.414 282.347,256.000 282.800 M251.400 284.000 C 249.860 284.403,248.906 284.747,249.280 284.766 C 250.059 284.805,254.416 283.717,254.727 283.406 C 255.037 283.096,254.470 283.198,251.400 284.000 M246.400 285.209 C 236.577 287.431,216.251 290.204,208.500 290.380 C 207.539 290.401,207.041 295.600,208.000 295.600 C 208.248 295.600,208.400 297.733,208.400 301.200 C 208.400 304.667,208.552 306.800,208.800 306.800 C 209.031 306.800,209.200 308.067,209.200 309.800 C 209.200 311.450,209.357 312.800,209.549 312.800 C 209.740 312.800,210.027 315.140,210.185 318.000 C 210.343 320.860,210.636 323.200,210.836 323.200 C 211.036 323.200,211.200 324.010,211.200 325.000 C 211.200 325.990,211.380 326.800,211.600 326.800 C 211.820 326.800,212.000 327.520,212.000 328.400 C 212.000 329.280,212.180 330.000,212.400 330.000 C 212.620 330.000,212.800 330.871,212.800 331.935 L 212.800 333.870 207.024 334.398 C 203.318 334.737,198.339 334.852,193.124 334.720 C 188.656 334.606,186.350 334.644,188.000 334.804 C 199.290 335.900,215.459 334.844,234.600 331.761 C 237.811 331.243,238.800 330.719,238.800 329.536 C 238.800 328.911,238.620 328.400,238.400 328.400 C 238.180 328.400,238.000 327.860,238.000 327.200 C 238.000 326.540,237.820 326.000,237.600 326.000 C 237.380 326.000,237.200 325.370,237.200 324.600 C 237.200 323.830,237.020 323.200,236.800 323.200 C 236.580 323.200,236.400 322.675,236.400 322.033 C 236.400 321.392,236.226 320.807,236.013 320.733 C 235.343 320.502,235.345 315.612,236.015 315.146 C 236.458 314.837,236.479 314.690,236.100 314.536 C 235.820 314.422,235.600 313.645,235.600 312.767 C 235.600 311.905,235.420 311.200,235.200 311.200 C 234.980 311.200,234.800 310.210,234.800 309.000 C 234.800 307.790,234.620 306.800,234.400 306.800 C 234.171 306.800,234.000 305.600,234.000 304.000 C 234.000 302.400,233.829 301.200,233.600 301.200 C 233.360 301.200,233.200 299.600,233.200 297.200 C 233.200 294.800,233.040 293.200,232.800 293.200 C 232.575 293.200,232.400 292.083,232.400 290.650 L 232.400 288.099 234.500 287.858 C 236.555 287.622,238.579 287.264,242.600 286.423 C 243.700 286.193,245.372 285.847,246.316 285.653 C 247.260 285.460,248.145 285.189,248.283 285.051 C 248.576 284.757,248.291 284.781,246.400 285.209 M72.400 287.785 C 72.400 288.115,72.605 288.310,76.401 291.600 C 78.050 293.029,79.490 294.289,79.600 294.400 C 81.697 296.501,95.880 306.653,96.230 306.303 C 96.329 306.205,95.102 305.262,93.505 304.208 C 87.377 300.168,79.411 294.005,74.813 289.747 C 73.486 288.519,72.400 287.636,72.400 287.785 M96.800 306.501 C 96.800 306.725,99.360 308.449,101.512 309.674 C 106.047 312.256,108.344 313.467,113.546 316.020 C 116.707 317.572,119.379 318.754,119.485 318.648 C 119.591 318.542,118.715 318.042,117.539 317.536 C 113.056 315.609,101.798 309.586,97.900 307.029 C 97.295 306.633,96.800 306.395,96.800 306.501 M132.600 323.872 C 132.820 324.086,133.810 324.493,134.800 324.776 C 135.790 325.059,136.987 325.472,137.461 325.692 C 137.934 325.913,138.550 326.017,138.829 325.924 C 139.108 325.831,138.001 325.335,136.368 324.822 C 134.736 324.309,133.130 323.798,132.800 323.686 C 132.406 323.552,132.337 323.616,132.600 323.872 M139.745 326.311 C 139.880 326.529,140.487 326.804,141.095 326.921 C 141.703 327.038,142.830 327.319,143.600 327.545 C 147.467 328.678,148.308 328.887,149.600 329.034 C 151.148 329.211,150.972 329.110,148.600 328.457 C 145.961 327.730,141.052 326.363,140.250 326.131 C 139.810 326.004,139.601 326.078,139.745 326.311 M151.600 329.554 C 152.380 329.996,158.857 331.276,159.098 331.036 C 159.199 330.934,158.588 330.735,157.741 330.592 C 156.893 330.449,155.660 330.184,155.000 330.003 C 152.990 329.452,150.943 329.181,151.600 329.554 M161.000 331.600 C 161.660 331.768,162.560 331.914,163.000 331.925 L 163.800 331.944 163.000 331.600 C 162.560 331.411,161.660 331.265,161.000 331.275 L 159.800 331.295 161.000 331.600 M165.400 332.400 C 166.060 332.568,167.050 332.709,167.600 332.713 L 168.600 332.720 167.600 332.400 C 167.050 332.224,166.060 332.083,165.400 332.087 L 164.200 332.095 165.400 332.400 M170.600 333.223 C 171.480 333.405,172.740 333.543,173.400 333.530 L 174.600 333.505 173.400 333.200 C 172.740 333.032,171.480 332.894,170.600 332.893 L 169.000 332.892 170.600 333.223 M177.600 334.020 C 178.590 334.197,180.120 334.332,181.000 334.320 L 182.600 334.300 180.800 333.980 C 179.810 333.803,178.280 333.668,177.400 333.680 L 175.800 333.700 177.600 334.020 M78.800 346.182 C 78.800 346.285,79.835 347.066,81.100 347.915 C 83.901 349.798,84.400 350.095,84.400 349.882 C 84.400 349.792,83.140 348.880,81.600 347.855 C 80.060 346.831,78.800 346.078,78.800 346.182 M85.400 350.596 C 86.294 351.339,88.828 352.709,88.200 352.110 C 87.980 351.900,87.080 351.324,86.200 350.830 C 85.320 350.335,84.960 350.230,85.400 350.596 M106.800 362.200 C 107.350 362.514,107.980 362.772,108.200 362.772 C 108.420 362.772,108.150 362.514,107.600 362.200 C 107.050 361.886,106.420 361.628,106.200 361.628 C 105.980 361.628,106.250 361.886,106.800 362.200 M116.000 366.166 C 116.550 366.460,117.450 366.812,118.000 366.949 C 118.550 367.086,118.280 366.852,117.400 366.429 C 115.590 365.558,114.468 365.348,116.000 366.166 M133.600 372.400 C 133.930 372.613,134.560 372.778,135.000 372.766 L 135.800 372.744 135.000 372.400 C 133.804 371.886,132.805 371.886,133.600 372.400 " stroke="none" fill="#b1a77a" fill-rule="evenodd"></path></g></svg>